<svg width="324" height="120" viewBox="0 0 324 120" fill="none" xmlns="http://www.w3.org/2000/svg">
<path d="M32.0546 54.6914V120L11.5439 107.839L5.05937 104.002L0 100.998V35.6891L5.05937 38.6938L11.5439 42.5299L32.0546 54.6914Z" fill="#F97316"/>
<path d="M93.3594 19.0042V83.0183L66.3643 67.0207V3.00659L93.3594 19.0042Z" fill="#F97316"/>
<path d="M61.3075 0V65.3205L37.1151 79.1804V67.9927L52.5545 57.5177V19.0261L17.0795 39.3586L5.06055 32.2327L52.5545 5.01187L61.3075 0Z" fill="#F97316"/>
<path d="M139.896 32.4517H144.144V35.7891C144.144 38.4186 143.335 40.5019 141.717 42.0392C140.098 43.536 137.59 44.2844 134.192 44.2844C130.794 44.2844 128.266 43.536 126.607 42.0392C124.948 40.5019 124.119 38.4186 124.119 35.7891V11.5169C124.119 8.88744 124.928 6.8243 126.546 5.32752C128.165 3.79028 130.673 3.02166 134.071 3.02166C137.469 3.02166 139.997 3.79028 141.656 5.32752C143.314 6.8243 144.144 8.88744 144.144 11.5169V17.2816H139.896V11.5169C139.896 9.97968 139.411 8.7863 138.44 7.93677C137.509 7.08725 136.053 6.66249 134.071 6.66249C132.129 6.66249 130.693 7.08725 129.762 7.93677C128.832 8.7863 128.367 9.97968 128.367 11.5169V35.7891C128.367 37.2859 128.832 38.4793 129.762 39.3692C130.733 40.2188 132.21 40.6435 134.192 40.6435C136.134 40.6435 137.57 40.2188 138.5 39.3692C139.431 38.4793 139.896 37.2859 139.896 35.7891V32.4517ZM155.991 43.3741V3.93187H165.153C168.39 3.93187 170.797 4.70049 172.374 6.23772C173.992 7.73451 174.802 9.79764 174.802 12.4271V20.9224C174.802 22.9046 174.357 24.5834 173.467 25.9589C172.577 27.2938 171.242 28.2445 169.462 28.8108L176.925 43.3741H172.253L165.153 29.4176H160.238V43.3741H155.991ZM170.554 12.4271C170.554 10.9303 170.089 9.75719 169.158 8.90766C168.268 8.01768 166.933 7.57269 165.153 7.57269H160.238V25.7768H165.153C166.974 25.7768 168.329 25.3521 169.219 24.5025C170.109 23.6126 170.554 22.4192 170.554 20.9224V12.4271ZM186.656 43.3741V3.93187H203.949V7.57269H190.903V21.5292H201.522V25.17H190.903V39.7333H204.556V43.3741H186.656ZM226.542 3.93187L235.462 43.3741H231.214L229.151 34.2721H217.561L215.498 43.3741H211.25L220.17 3.93187H226.542ZM218.35 30.6313H228.301L223.326 8.66494L218.35 30.6313ZM257.303 7.57269H249.415V43.3741H245.167V7.57269H237.279V3.93187H257.303V7.57269ZM286.105 35.7891C286.105 38.4186 285.256 40.5019 283.557 42.0392C281.898 43.536 279.329 44.2844 275.85 44.2844C272.371 44.2844 269.762 43.536 268.022 42.0392C266.323 40.5019 265.474 38.4186 265.474 35.7891V11.5169C265.474 8.88744 266.303 6.8243 267.962 5.32752C269.661 3.79028 272.25 3.02166 275.729 3.02166C279.208 3.02166 281.797 3.79028 283.496 5.32752C285.235 6.8243 286.105 8.88744 286.105 11.5169V35.7891ZM281.857 11.5169C281.857 9.97968 281.352 8.7863 280.34 7.93677C279.329 7.08725 277.792 6.66249 275.729 6.66249C273.706 6.66249 272.189 7.08725 271.178 7.93677C270.207 8.7863 269.721 9.97968 269.721 11.5169V35.7891C269.721 37.2859 270.227 38.4793 271.238 39.3692C272.25 40.2188 273.787 40.6435 275.85 40.6435C277.873 40.6435 279.37 40.2188 280.34 39.3692C281.352 38.5197 281.857 37.3263 281.857 35.7891V11.5169ZM298.53 43.3741V3.93187H307.693C310.929 3.93187 313.336 4.70049 314.914 6.23772C316.532 7.73451 317.341 9.79764 317.341 12.4271V20.9224C317.341 22.9046 316.896 24.5834 316.006 25.9589C315.116 27.2938 313.781 28.2445 312.001 28.8108L319.465 43.3741H314.793L307.693 29.4176H302.778V43.3741H298.53ZM313.094 12.4271C313.094 10.9303 312.628 9.75719 311.698 8.90766C310.808 8.01768 309.473 7.57269 307.693 7.57269H302.778V25.7768H307.693C309.514 25.7768 310.869 25.3521 311.759 24.5025C312.649 23.6126 313.094 22.4192 313.094 20.9224V12.4271Z" fill="black"/>
<path d="M150.163 92.5327C151.932 94.4202 153.112 96.2488 153.702 98.0184C154.351 99.788 154.675 101.971 154.675 104.566C154.675 108.4 153.496 111.438 151.136 113.679C148.777 115.862 144.972 116.953 139.722 116.953C134.531 116.953 130.727 115.862 128.308 113.679C125.949 111.438 124.769 108.4 124.769 104.566V97.0451H130.963V104.92C130.963 106.925 131.671 108.547 133.086 109.786C134.561 111.025 136.773 111.644 139.722 111.644C142.672 111.644 144.854 111.025 146.27 109.786C147.744 108.547 148.482 106.925 148.482 104.92C148.482 103.091 148.275 101.558 147.862 100.319C147.508 99.0802 146.594 97.753 145.119 96.3373L129.547 81.1188C127.719 79.2312 126.45 77.4027 125.742 75.6331C125.094 73.8635 124.769 71.7105 124.769 69.1741C124.769 65.3399 125.978 62.3316 128.397 60.1491C130.815 57.9077 134.531 56.7869 139.545 56.7869C144.5 56.7869 148.098 57.9077 150.34 60.1491C152.64 62.3316 153.791 65.3399 153.791 69.1741V76.6948H147.597V68.8201C147.597 66.7556 146.919 65.1335 145.562 63.9538C144.205 62.715 142.111 62.0957 139.28 62.0957C136.448 62.0957 134.354 62.715 132.998 63.9538C131.641 65.1335 130.963 66.7556 130.963 68.8201C130.963 70.6487 131.14 72.1824 131.494 73.4211C131.907 74.6598 132.85 75.9575 134.325 77.3142L150.163 92.5327ZM161.758 115.626V58.1141H175.118C179.837 58.1141 183.347 59.2348 185.647 61.4763C188.007 63.6588 189.186 66.6671 189.186 70.5013V85.5428C189.186 89.3769 188.036 92.4147 185.736 94.6562C183.435 96.8387 179.896 97.9299 175.118 97.9299H167.951V115.626H161.758ZM182.993 70.5013C182.993 68.3188 182.315 66.6081 180.958 65.3694C179.66 64.0717 177.714 63.4229 175.118 63.4229H167.951V92.6212H175.118C177.773 92.6212 179.749 92.0018 181.046 90.7631C182.344 89.4654 182.993 87.7253 182.993 85.5428V70.5013ZM209.731 58.1141L222.738 115.626H216.544L213.536 102.354H196.636L193.628 115.626H187.434L200.441 58.1141H209.731ZM197.786 97.0451H212.297L205.042 65.0155L197.786 97.0451ZM247.911 99.6995H254.105V104.566C254.105 108.4 252.925 111.438 250.566 113.679C248.206 115.862 244.549 116.953 239.594 116.953C234.639 116.953 230.953 115.862 228.534 113.679C226.116 111.438 224.907 108.4 224.907 104.566V69.1741C224.907 65.3399 226.086 62.3316 228.446 60.1491C230.805 57.9077 234.462 56.7869 239.417 56.7869C244.372 56.7869 248.059 57.9077 250.477 60.1491C252.896 62.3316 254.105 65.3399 254.105 69.1741V77.5796H247.911V69.1741C247.911 66.9326 247.204 65.1925 245.788 63.9538C244.431 62.715 242.308 62.0957 239.417 62.0957C236.586 62.0957 234.492 62.715 233.135 63.9538C231.779 65.1925 231.1 66.9326 231.1 69.1741V104.566C231.1 106.748 231.779 108.488 233.135 109.786C234.551 111.025 236.704 111.644 239.594 111.644C242.426 111.644 244.52 111.025 245.876 109.786C247.233 108.488 247.911 106.748 247.911 104.566V99.6995ZM260.762 115.626V58.1141H285.978V63.4229H266.955V83.7732H282.439V89.082H266.955V110.317H286.863V115.626H260.762ZM314.939 92.5327C316.708 94.4202 317.888 96.2488 318.478 98.0184C319.127 99.788 319.451 101.971 319.451 104.566C319.451 108.4 318.272 111.438 315.912 113.679C313.553 115.862 309.748 116.953 304.498 116.953C299.307 116.953 295.503 115.862 293.084 113.679C290.725 111.438 289.545 108.4 289.545 104.566V97.0451H295.739V104.92C295.739 106.925 296.447 108.547 297.862 109.786C299.337 111.025 301.549 111.644 304.498 111.644C307.448 111.644 309.63 111.025 311.046 109.786C312.52 108.547 313.258 106.925 313.258 104.92C313.258 103.091 313.051 101.558 312.638 100.319C312.284 99.0802 311.37 97.753 309.895 96.3373L294.323 81.1188C292.494 79.2312 291.226 77.4027 290.518 75.6331C289.87 73.8635 289.545 71.7105 289.545 69.1741C289.545 65.3399 290.754 62.3316 293.173 60.1491C295.591 57.9077 299.307 56.7869 304.321 56.7869C309.276 56.7869 312.874 57.9077 315.116 60.1491C317.416 62.3316 318.566 65.3399 318.566 69.1741V76.6948H312.373V68.8201C312.373 66.7556 311.695 65.1335 310.338 63.9538C308.981 62.715 306.887 62.0957 304.056 62.0957C301.224 62.0957 299.13 62.715 297.774 63.9538C296.417 65.1335 295.739 66.7556 295.739 68.8201C295.739 70.6487 295.916 72.1824 296.27 73.4211C296.683 74.6598 297.626 75.9575 299.101 77.3142L314.939 92.5327Z" fill="#F97316"/>
</svg>
